<?xml version="1.0" encoding="utf-8"?>
<!-- Generator: Adobe Illustrator 27.7.0, SVG Export Plug-In . SVG Version: 6.00 Build 0)  -->
<svg version="1.1" id="Layer_1" xmlns="http://www.w3.org/2000/svg" xmlns:xlink="http://www.w3.org/1999/xlink" x="0px" y="0px"
	 viewBox="0 0 215.2 129" style="enable-background:new 0 0 215.2 129;" xml:space="preserve">
<style type="text/css">
	.st0{fill:#CBFFF6;}
</style>
<g>
	<path class="st0" d="M160.1,78.4c-5.3,0-8.7,4-8.7,9.3s3.6,9.3,8.7,9.3c5.3,0,8.7-4,8.7-9.3S165.3,78.4,160.1,78.4z"/>
	<path class="st0" d="M55,47.9c3-0.8,4.9-2.6,6.1-4.5l0,0l-3.2-2.2c-0.7,1-1.9,2.3-3.9,2.9c-3.9,1.1-7.3-1.1-8.4-4.9
		c-1.1-3.8,0.5-7.4,4.5-8.5c1.9-0.5,3.7-0.1,4.9,0.4l1.6-3.7c-2.1-1-4.6-1.3-7.6-0.5c-6.5,1.8-9.5,7.6-7.8,13.5
		C42.8,46.4,48.3,49.7,55,47.9z"/>
	<path class="st0" d="M59,33.1l1.5-0.4l2.4,8.4c0.7,2.6,2.4,3.8,5.4,2.9c1.4-0.4,2-0.8,2.1-0.8l-0.9-3.3l-0.9,0.3
		c-1.1,0.3-1.7-0.1-2-1.3l-2.1-7.3l2.5-0.7L66,27.6l-2.5,0.7l-0.7-2.5l-4,1.1l0.7,2.5L58,29.8L59,33.1z"/>
	<path class="st0" d="M76.9,41.5l-2.7-9.6c-0.4-1.3-0.1-2.2,1.5-2.7l1-0.3l0,0l-1.2-4.1c-1.6,0.5-2.4,1.2-2.7,2.2l-0.4-1.3l-4,1.1
		l4.4,15.7L76.9,41.5z"/>
	<polygon class="st0" points="86.2,38.9 80.2,17.5 76.1,18.6 82.2,40 	"/>
	<path class="st0" d="M131.7,35.6l6.7,1l1.1,5.7l4.2,0.6l-4.5-20.7l-4.1-0.6l-10,18.5l3.9,0.6L131.7,35.6z M136.4,26.8l1.3,6.2
		l-4.3-0.6L136.4,26.8z"/>
	
		<rect x="138.3" y="31.1" transform="matrix(0.1488 -0.9889 0.9889 0.1488 93.93 175.2318)" class="st0" width="20.9" height="3.8"/>
	<path class="st0" d="M153.1,40.4c-0.4,2.5,0.6,4.1,3.4,4.6c1.3,0.2,2,0.1,2.1,0.1l0.5-3.2l-0.9-0.1c-1.1-0.2-1.4-0.7-1.2-1.8l1.1-7
		l2.3,0.3l0.5-3.2l-2.3-0.3h0l0.4-2.4l-3.8-0.6l-0.4,2.4l-1.4-0.2l-0.5,3.2l1.4,0.2L153.1,40.4z"/>
	<path class="st0" d="M19.4,80.3c-0.9,0.1-1.9,0.2-2.9,0.4l-0.5,0.1l6.4,29l0,0l0.5-0.1c8.6-1.8,12.8-8.1,10.7-17.6
		C31.8,83.9,26.6,79.8,19.4,80.3z"/>
	<path class="st0" d="M62,83.3c0,0-0.1,0-0.1,0c-3.9,0-6.4,2.6-6.8,6.1l14.1,0.2l0,0C68.9,86.1,66.3,83.3,62,83.3z"/>
	<path class="st0" d="M212.8,75.6l-7.3-3.5c-1-0.5-2.2-0.1-2.6,0.9l-5.8,12l-4.5-1.6l2.4-12.9c0.2-0.9-0.4-1.8-1.3-1.9l-8.9-1.7
		c-0.9-0.2-1.8,0.4-1.9,1.3l-1.7,8.9c-0.1,0.6-0.9,0.7-1.2,0.2c-1-2-2.3-3.7-3.8-5.2l6.4-36.8c0.4-2.3-0.1-4.7-1.4-6.6l-11.1-16.1
		c-0.2-0.3-0.4-0.6-0.6-0.9c0,0-0.1-0.1-0.1-0.1l0,0l0,0c-1.5-1.9-3.6-3-5.9-3.2c-9.4-0.9-22.3-3-30.7-4.8c-2.4-0.5-4.9-0.1-7,1.3
		c-0.8,0.5-1.5,1.2-2.1,2l-6.9,8.3c-2.1,2.6-3.6,5.7-4.2,8.9l-0.4,2c-1.2-1.7-3.2-2.8-5.4-2.8h0c-0.2,0-0.3,0-0.5,0
		c-3.7,0.3-6.4,3.5-6.1,7.1l0.1,1.2L99,31.7c-0.8,0.1-1.6,0.3-2.3,0.6l-7.3-22.2c-0.9-2.5-2.7-4.5-5-5.6c-2.3-1.1-5-1.3-7.4-0.4
		c-12.4,4.5-29.6,8.2-43.8,9.6c-2.1,0.2-3.9,1.2-5.2,2.7l-11.3,9.7c-3.8,3.3-5.4,8.5-4,13.4L20.9,68c-1.6,0-3.3,0.1-5,0.4L3.6,71.5
		c-0.8,0.1-1.6,0.6-2.1,1.3c-0.5,0.7-0.7,1.5-0.6,2.4l10.2,45.5c0.1,0.8,0.6,1.6,1.3,2.1c0.6,0.4,1.2,0.6,1.9,0.6c0.2,0,0.3,0,0.5,0
		l9-1.9c6.2-1.7,11.3-2.8,18-9c1.4-1.3,2.8-4.2,3.6-6c0.3-0.8,1.1-0.9,1.7-0.4c0.8,0.7,1.7,1.4,2.4,2.1c1.6,1.4,5.9,4.2,11.2,4.3
		c0.1,0,1.9,0,2.1,0c8.5-0.6,12-4.2,14.6-7.5c0.4-0.5,1.4-0.4,1.8,0.6c2.3,6.1,6.7,9.1,14,9.1c0.8,0,1.6,0,2.5-0.1
		c0.2,0,0.4,0,0.5-0.1c0,0,0.1,0,0.1,0c0.2,0,0.3,0,0.5-0.1c0,0,0.1,0,0.1,0c0.2,0,0.4-0.1,0.5-0.1c0,0,0.1,0,0.1,0
		c0.1,0,0.3-0.1,0.4-0.1c0,0,0.1,0,0.1,0c0.2,0,0.3-0.1,0.5-0.1c0,0,0,0,0.1,0c0.1,0,0.2-0.1,0.4-0.1c0.1,0,0.1,0,0.2-0.1
		c0.3-0.1,0.7-0.2,1-0.3c0,0,0.1,0,0.1,0c0.1,0,0.3-0.1,0.4-0.2c0,0,0,0,0.1,0c0.2-0.1,0.3-0.1,0.5-0.2c0,0,0.1,0,0.1,0
		c0.1-0.1,0.3-0.1,0.4-0.2c0,0,0.1,0,0.1,0c0.2-0.1,0.3-0.1,0.5-0.2c0,0,0,0,0,0c0.1-0.1,0.3-0.1,0.4-0.2c0,0,0.1,0,0.1-0.1
		c0.3-0.2,0.6-0.3,0.8-0.5c0,0,0,0,0.1,0c0.1,0,0.1-0.1,0.2-0.1l0,0l1.8-1c0.2-0.1,0.3-0.1,0.5-0.2c1.3-0.2,1.5,1.1,1.4,1.6l0,0.3
		c-0.2,1.3-0.1,2.7,0.4,4c1.5,3.9,5.9,5.9,9.8,4.4c8.4-3.2,16.5-5,22.2-5.1c8.7-0.1,12.2,1.7,17,4.1c3,1.5,6.4,3.3,11.2,4.6
		c2.1,0.6,4.1,0.9,6,0.9c6.3,0,11.8-2.9,16.1-8.6c1.9-2.5,3.3-5.3,4.5-8.1c4.9-0.1,7.9-2.7,9.7-4.9c1.8-2.2,5.6-11,6.5-13.6
		c0.1-0.3,0-0.5-0.3-0.6l-2.1-0.7l5.2-10.8C214.2,77.2,213.8,76,212.8,75.6z M185.5,70.5c0-0.1,0.1-0.2,0.3-0.2l5.8,1.1
		c0.1,0,0.2,0.1,0.2,0.3l-1.9,10.5c0,0.2-0.2,0.3-0.4,0.2l-5.4-1.8c-0.1,0-0.2-0.2-0.2-0.3L185.5,70.5z M176.9,87.7
		c0,9.4-6.9,16.6-16.8,16.6c-10,0-16.7-7-16.7-16.5c0-9.5,7.1-16.6,16.7-16.6C170.3,71.2,176.9,78.2,176.9,87.7z M136.9,78.8l0.6,19
		c0,1-0.8,1.9-1.8,1.9l-4.5,0.1c-1,0-1.9-0.8-1.9-1.8l-0.9-31c0-0.6,0.5-1.2,1.1-1.2l5.6-0.2c0.9,0,1.8-0.1,1.7,1.6l0,0.4
		c0,0.2,0.2,0.3,0.3,0.2l1-0.6c3.2-1.7,6.9-2.1,10.3-0.9l0.7,0.2c0.6,0.4,0.7,1.1,0.4,1.7l-3,4.9c-0.3,0.4-0.9,0.6-1.4,0.5l-2.3-0.4
		c-2.8-0.4-5.4,1.5-5.7,4.3L136.9,78.8z M171,20l7.3,10.6c0.8,1.2,1.1,2.6,0.9,4.1l-6.1,34.9c-3.2-2-7.2-3.2-11.8-3.2
		c-1.9,0-3.7,0.2-5.5,0.6c-0.1-0.2-0.2-0.3-0.3-0.4l0,0c-3.4-3.2-6.5-5.1-12.3-5.1c0,0-0.1,0-0.1,0l-0.1,0c-1.8,0.1-3.3,0.4-4.7,1
		c-0.5-0.3-1.2-0.5-1.8-0.5c0,0-0.1,0-0.1,0l-8.7,0.4c-0.9,0-1.8,0.4-2.4,1.1c-0.6,0.7-0.9,1.6-0.9,2.5l0,1.1c0,0.2-0.2,0.3-0.4,0.2
		c-0.5-0.3-1-0.4-1.5-0.4c-0.1,0-0.2,0-0.3,0l-2.3,0.2l-0.2-2.4c-0.1-1.6-1.4-2.7-3-2.7c-0.1,0-0.2,0-0.3,0l-7.4,0.7l2.1-11.5
		c1.9-1.6,2.8-4.6,2.7-7.2l0.7,0l0.9-0.1c0,0,0,0,0.1,0l0,0.2c-0.7,4.1,1.7,8.1,5.6,9.3c10.3,3.3,25.1,5,35.1,5.1c0,0,0,0,0,0
		c4.8,0,9-3.6,9.7-8.3L171,20z M125.3,11.5c0.3-1.5,1.1-2.8,2.4-3.7c0.9-0.6,2-0.9,3.1-0.9v0c0.4,0,0.8,0,1.2,0.1
		c8.5,1.9,21.6,4,31.1,4.9c1.4,0.1,2.6,0.8,3.5,1.9l0.3,0.5c0.7,1.1,1,2.4,0.8,3.6l-5.3,31.7c-0.5,3.1-3.2,5.4-6.3,5.4
		c-9.7-0.1-24.1-1.7-34-5c-2.3-0.7-3.6-3.1-3.2-5.4l0.5-2.5c0.2-0.2,0.4-0.4,0.6-0.6c1.2-1.3,1.7-3.1,1.6-4.8
		c-0.1-0.9-0.3-1.7-0.7-2.5L125.3,11.5z M116,24.7c0.5-2.7,1.7-5.2,3.4-7.3l1.5-1.8l-3,15.7c-0.9-0.5-1.9-0.7-3-0.7c0,0,0,0,0,0
		L116,24.7z M99.3,35.2l4.8-0.4l-0.3-4.7c-0.1-1.7,1.2-3.3,2.9-3.4c0.1,0,0.2,0,0.2,0c1.6,0,3,1.3,3.2,2.9l0.3,4.7l4.4-0.3
		c0.1,0,0.2,0,0.2,0c1.6,0,3,1.3,3.1,2.9c0.1,1.7-1.2,3.2-2.9,3.4l-4.4,0.3l0.4,4.7c0.1,1.7-1.2,3.3-2.9,3.4c-0.1,0-0.2,0-0.2,0
		c-1.6,0-3-1.3-3.2-2.9l-0.4-4.7l-4.8,0.4c-0.1,0-0.2,0-0.2,0c-1.6,0-3-1.3-3.1-2.9C96.2,36.9,97.5,35.3,99.3,35.2z M30.3,19.2
		c0.1-0.1,0.2-0.3,0.3-0.4l1.1-1c0.6-0.3,1.2-0.5,1.8-0.6C48,15.8,65.5,12,78.2,7.4c0.7-0.2,1.4-0.4,2.1-0.4v0
		c0.9,0,1.8,0.2,2.7,0.6c1.5,0.7,2.7,2,3.2,3.6l7.7,23.5c-0.7,1.2-1.1,2.6-1,4c0.2,2.3,1.6,4.3,3.5,5.4c-0.2,1.9-1.4,3.6-3.2,4.4
		c-13.1,5.6-32.7,9.8-47.8,10.1c-2.9,0.1-5.5-1.8-6.4-4.6L29.7,23C29.3,21.7,29.5,20.3,30.3,19.2z M43.9,96.7
		c-0.2,10.6-7.2,18.5-19.7,21.2l-8.3,1.8c-0.5,0.1-1.1-0.2-1.2-0.8l-9.5-43c-0.1-0.5,0.2-1.1,0.8-1.2l8.3-1.8
		c1.8-0.4,3.5-0.6,5.1-0.7c11.9-0.8,20.5,5.2,23.5,16.8c0.7,2.4,1,4.9,1,7.3L43.9,96.7z M77.2,93.8c0,1.1-0.9,1.9-2,1.9l-20.4-0.3
		c0.3,4.2,3.2,6.8,7.6,6.8c0.1,0,0.1,0,0.2,0c3.3,0,5.4-1.5,7-3.5c0.5-0.6,1.3-0.8,2-0.3l3.3,2.1c0.7,0.5,0.9,1.4,0.5,2.1
		c-2.2,3.4-6.2,6.6-12.7,6.6c-0.1,0-0.2,0-0.3,0c-9.4-0.2-15.9-6.5-15.7-16.5c0.2-9.3,6.4-16.1,15.3-16.1l0,0c0.1,0,0.2,0,0.3,0
		c9.4,0.2,15.2,6.4,15,15.9C77.2,92.9,77.2,93.3,77.2,93.8z M79.1,76.7l-1.3,1.5c-0.3,0.3-0.8,0.3-1.1,0c-3.5-3.5-8.2-6-13.9-6.1
		c-0.1,0-0.2,0-0.4,0l0,0c-8.6,0-15,5-17.9,11.3c-1.8-7.3-10.3-13.9-20-15.2l-8.5-29.6c-1-3.5,0.1-7.4,2.9-9.8l7.1-6.1
		c0.1,0.5,0.1,0.9,0.3,1.4l9.3,31.1c1.3,4.2,5.2,7,9.6,7l0.2,0c15.5-0.3,35.7-4.6,49.1-10.4c2.9-1.2,4.8-3.9,5.2-6.9
		c0.1,0,0.1,0,0.2,0l1.3-0.1l0.1,1.2c0.2,3.3,2.9,5.9,6.1,6.1L104.6,68l-2.3,0.2v0c-1.2,0.1-2.2,1.1-2.2,2.4v2
		c0,0.4-0.4,0.6-0.7,0.4L99,72.9c-1.1-0.6-2.4-0.9-3.6-1.1c-2.2-0.2-4.9-0.2-7.7,0.4C82.3,73.3,79.1,76.7,79.1,76.7z M94.9,111.3
		c-0.7,0.1-1.5,0.1-2.1,0.1c-7.2,0.1-10.4-4-11.2-8.9c-0.1-0.7,0.4-1.5,1.1-1.5l5.6-0.7c0.7-0.1,1.3,0.4,1.4,1
		c0.4,1.7,1.5,3.1,3.8,3c0.2,0,0.4,0,0.7,0c2.2-0.3,3.9-1.6,3.7-3.5c-0.2-2-1.4-2.8-3.8-3.1c-1.9-0.3-3.4-0.4-5.4-0.9
		c-4.9-1.2-7.7-4.1-8.3-9.3c-0.7-5.8,3.7-10.6,10.6-11.3c0.7-0.1,1.3-0.1,1.9-0.1v0c5.6-0.1,9.3,2.6,10.6,7.9
		c0.2,0.9-0.4,1.8-1.3,1.9l-4.9,0.6c-0.7,0.1-1.4-0.3-1.6-1c-0.5-1.7-1.7-2.6-3.5-2.6c-0.2,0-0.4,0-0.6,0c-2,0.2-3.3,1.5-3.1,3.3
		c0.2,1.7,1.3,2.5,3.4,2.9c1.6,0.3,3,0.4,4.8,0.7c5.7,1,8.7,3.4,9.4,9.6C107,106.2,101.6,110.5,94.9,111.3z M105,78.3
		c-0.5,0-0.9-0.3-0.9-0.8l-0.4-5.3c0-0.5,0.3-0.9,0.8-1l4.4-0.2l-0.3-4.4c0-0.5,0.3-0.9,0.8-1l6.6-0.5c0.5,0,0.9,0.3,1,0.8l0.3,4.4
		l5.1-0.3c0.5,0,0.9,0.3,0.9,0.8l0.4,5.3c0,0.5-0.3,0.9-0.8,1l-5.1,0.3l1.2,15.5c0.2,2.5,1.1,3.5,3.5,3.3l0.6,0
		c0.8-0.1,1.4,0.5,1.5,1.3l0.4,4.6c0.1,0.7-0.4,1.3-1.1,1.5c-0.8,0.2-1.9,0.4-3.4,0.5c-6.3,0.5-9.2-2.5-9.6-8l-1.4-17.9L105,78.3z
		 M201.4,102.2c-1.6,1.9-4.4,4.2-9.3,3.6c-1.2,3.2-2.8,6.4-4.8,9.2c-3.6,4.8-8.2,7.2-13.4,7.2c-1.6,0-3.3-0.2-5.1-0.7
		c-4.8-1.3-7.8-2.9-10.4-4.3c-3.9-2.1-7.3-3.9-16.6-4.5c-5.5-0.4-19.3,1.8-24.7,5c-2,1.2-4.5,0.5-5.7-1.5c-1.2-2-0.5-4.5,1.5-5.7
		c7.2-4.2,22.7-6.6,29.5-6.1c11.1,0.8,15.6,3.1,20,5.5c2.5,1.3,4.9,2.6,8.8,3.7c3.9,1.1,6.9,0,9.5-3.5c1.5-2,2.7-4.6,3.7-7.2
		c-5-3.4-5.6-8.1-5.2-11.7c0.3-2.6,1.4-6.3,1.8-8c0-0.2,0.3-0.3,0.4-0.3l24.7,8.7c0.2,0.1,0.3,0.3,0.2,0.5
		C205.7,93.9,202.8,100.6,201.4,102.2z M210.6,78.4l-4.9,9.6c-0.1,0.1-0.2,0.2-0.4,0.1l-5.3-1.9c-0.2-0.1-0.3-0.3-0.2-0.4l5.1-10.1
		c0-0.1,0.2-0.1,0.3-0.1l5.3,2.6C210.6,78.2,210.6,78.3,210.6,78.4z"/>
</g>
</svg>
